<svg width="684" height="684" viewBox="0 0 684 684" fill="none" xmlns="http://www.w3.org/2000/svg">
<path fill-rule="evenodd" clip-rule="evenodd" d="M341.8 18.8493C427.649 18.8493 505.56 52.3333 563.373 106.896L428.547 241.669C424.797 245.346 424.755 251.352 428.474 255.071C432.193 258.789 438.187 258.748 441.875 254.977L576.635 120.164C631.219 178.013 664.703 255.924 664.703 341.83C664.703 520.297 520.29 664.737 341.796 664.737C255.936 664.737 177.983 631.253 120.156 576.669L194.391 502.476C200.532 496.512 196.125 486.106 187.563 486.356C185.11 486.397 182.818 487.392 181.084 489.116L106.849 563.351C52.2704 505.564 18.7758 427.657 18.7758 341.844C18.7758 163.337 163.282 18.844 341.776 18.844L341.8 18.8493ZM341.8 0C153.147 0 0 153.187 0 341.84C0 530.453 153.147 683.573 341.8 683.573C530.453 683.573 683.533 530.453 683.533 341.84C683.539 153.187 530.44 0 341.8 0Z" fill="#25607E"/>
<path d="M352.005 509.469C319.303 518.715 270.25 513.334 230.657 470.479C188.34 424.693 181.938 384.628 184.118 317.381C186.159 254.567 221.491 195.824 264.554 183.647C307.62 171.47 411.141 221.547 439.562 322.06C439.976 323.148 452.628 358.299 447.803 390.52C439.531 446.514 411.826 484.129 363.096 505.505C359.617 507.037 355.884 508.363 352 509.462L352.005 509.469ZM267.585 194.364C233.688 203.949 197.359 252.721 195.247 317.742C193.159 381.892 199.151 419.975 238.833 462.914C275.008 502.068 319.446 507.097 348.971 498.749C352.361 497.79 355.604 496.634 358.625 495.312C403.547 475.601 429.12 440.784 436.792 388.881C441.201 359.423 429.099 325.819 428.978 325.487C401.084 226.894 300.781 184.977 267.584 194.364L267.585 194.364Z" fill="#25607E"/>
<path d="M339.23 276.842C330.936 279.187 319.571 273.55 311.589 263.132C301.842 250.417 300.546 235.59 308.647 229.374C309.888 228.423 311.298 227.72 312.848 227.282C321.142 224.936 332.507 230.573 340.48 240.992C344.983 246.848 347.849 253.457 348.564 259.588C349.33 266.241 347.505 271.628 343.425 274.758C342.184 275.701 340.775 276.406 339.23 276.843L339.23 276.842ZM314.362 232.638C313.5 232.882 312.713 233.268 312.034 233.792C306.598 237.962 308.421 249.845 316.012 259.744C323.465 269.471 334.593 274.485 340.036 270.334C342.5 268.448 343.561 264.855 343.028 260.227C342.433 255.079 339.957 249.453 336.062 244.378C329.543 235.861 320.416 230.927 314.362 232.638L314.362 232.638Z" fill="#25607E"/>
</svg>
