<svg width="684" height="684" viewBox="0 0 684 684" fill="none" xmlns="http://www.w3.org/2000/svg">
<path fill-rule="evenodd" clip-rule="evenodd" d="M341.8 18.8493C427.649 18.8493 505.56 52.3333 563.373 106.896L428.547 241.669C424.797 245.346 424.755 251.352 428.474 255.071C432.193 258.789 438.187 258.748 441.875 254.977L576.635 120.164C631.219 178.013 664.703 255.924 664.703 341.83C664.703 520.297 520.29 664.737 341.796 664.737C255.936 664.737 177.983 631.253 120.156 576.669L194.391 502.476C200.532 496.512 196.125 486.106 187.563 486.356C185.11 486.397 182.818 487.392 181.084 489.116L106.849 563.351C52.2704 505.564 18.7758 427.657 18.7758 341.844C18.7758 163.337 163.282 18.844 341.776 18.844L341.8 18.8493ZM341.8 0C153.147 0 0 153.187 0 341.84C0 530.453 153.147 683.573 341.8 683.573C530.453 683.573 683.533 530.453 683.533 341.84C683.539 153.187 530.44 0 341.8 0Z" fill="#25607E"/>
<path d="M464.478 560.606C467.76 540.342 474.754 523.191 485.886 508.162C497.116 493.034 512.163 480.504 531.903 469.878C534.308 468.576 535.641 465.891 535.228 463.188C534.963 461.496 534.059 459.995 532.678 458.97C531.898 458.392 530.971 457.994 530.026 457.811C517.335 455.436 504.421 452.975 491.941 450.595C481.209 448.552 470.173 446.46 459.224 444.393C458.97 417.944 453.851 391.635 444.017 366.836C436.784 348.577 427.083 331.422 415.205 315.842C408.695 307.3 401.535 299.261 393.8 291.768C401.466 286.022 410.084 280.54 419.54 275.427C421.94 274.133 423.279 271.441 422.86 268.745C422.595 267.053 421.692 265.551 420.318 264.533C419.53 263.949 418.637 263.551 417.68 263.371C386.67 257.455 354.948 251.445 323.367 245.495C322.77 245.385 322.17 245.363 321.585 245.417C320.644 245.051 319.704 244.689 318.758 244.334C300.4 237.505 281.164 233.212 261.591 231.595C250.905 230.709 240.207 230.629 229.586 231.324C229.275 231.3 228.962 231.291 228.647 231.313C214.865 232.274 201.11 234.568 187.765 238.135C174.385 241.721 161.276 246.623 148.808 252.704C146.914 253.627 145.587 255.417 145.249 257.503C143.058 271.158 142.183 285.132 142.654 299.034C143.124 312.796 144.909 326.614 147.969 340.099C148.044 340.429 148.154 340.745 148.277 341.056C153.858 364.972 163.357 387.54 176.546 408.167C180.286 414.013 184.302 419.65 188.564 425.079C188.684 425.586 188.861 426.082 189.108 426.555C194.623 437.116 200.237 447.851 205.67 458.228C214.826 475.725 224.296 493.825 233.541 511.654C233.985 512.513 234.636 513.283 235.424 513.867C236.8 514.887 238.489 515.323 240.179 515.078C242.894 514.706 245.082 512.643 245.628 509.963C247.776 499.427 250.518 489.589 253.791 480.582C263.196 485.799 272.959 490.307 283.024 494.054C301.382 500.884 320.61 505.17 340.191 506.794C365.662 508.905 391.192 506.489 415.595 499.768L452.502 562.843C452.953 563.603 453.532 564.252 454.237 564.775C455.678 565.843 457.519 566.264 459.282 565.936C461.965 565.443 464.054 563.295 464.481 560.608L464.478 560.606ZM361.333 265.844C374.008 268.241 386.459 270.611 398.346 272.874C393.334 276.077 388.537 279.44 384.099 282.862C380.375 279.686 376.314 276.468 372.026 273.288C370.436 272.109 368.83 270.961 367.212 269.828C366.954 269.646 366.698 269.465 366.44 269.287C364.869 268.198 363.287 267.131 361.691 266.085C361.571 266.005 361.452 265.923 361.333 265.844ZM155.696 301.193C155.717 300.931 155.726 300.664 155.714 300.396C155.705 300.134 155.675 299.874 155.636 299.619C155.191 288.222 155.708 276.82 157.18 265.498C157.259 265.216 157.328 264.926 157.367 264.626C157.437 264.068 157.518 263.507 157.599 262.946C178.486 253.175 200.481 247.188 222.673 244.881C221.978 262.266 215.123 280.546 203.382 296.364L203.14 296.69C191.254 312.736 175.644 324.735 159.18 330.475C157.312 320.754 156.151 310.975 155.696 301.193ZM242.442 473.887C240.473 479.106 238.654 484.632 237.053 490.331C231.2 479.092 225.302 467.823 219.756 457.226C220.229 457.623 220.714 458.013 221.192 458.407C221.56 458.707 221.925 459.012 222.295 459.313C223.349 460.168 224.412 461.014 225.486 461.85C225.917 462.184 226.354 462.518 226.787 462.851C227.563 463.448 228.342 464.04 229.121 464.624C229.337 464.785 229.547 464.953 229.763 465.113L229.779 465.125C229.974 465.269 230.169 465.408 230.365 465.55C231.147 466.127 231.925 466.692 232.705 467.254C232.781 467.308 232.855 467.363 232.93 467.415C236.143 469.719 239.348 471.9 242.442 473.887ZM237.534 454.748L237.495 454.719C235.964 453.584 234.459 452.422 232.964 451.247C232.509 450.888 232.056 450.525 231.6 450.162C230.499 449.281 229.408 448.387 228.326 447.484C227.889 447.121 227.449 446.761 227.017 446.395C225.696 445.276 224.394 444.136 223.104 442.985C222.474 442.421 221.852 441.847 221.229 441.275C220.523 440.629 219.822 439.976 219.125 439.322C218.399 438.637 217.675 437.954 216.962 437.261C216.468 436.782 215.984 436.292 215.495 435.81C214.016 434.346 212.561 432.862 211.132 431.351C210.796 430.999 210.461 430.646 210.128 430.29C209.276 429.378 208.432 428.457 207.595 427.528C207.312 427.215 207.035 426.9 206.756 426.586C205.202 424.841 203.68 423.066 202.19 421.267C201.911 420.929 201.627 420.597 201.351 420.258C182.963 397.788 169.525 371.5 162.129 343.113C170.561 340.335 178.801 336.193 186.684 330.701C196.75 323.693 205.786 314.847 213.534 304.414L213.788 304.072C221.46 293.71 227.25 282.549 230.989 270.906C233.897 261.833 235.438 252.797 235.641 243.951C264.56 242.81 293.507 247.877 320.481 258.945C321.861 259.511 323.233 260.093 324.6 260.689C325.189 260.946 325.776 261.205 326.365 261.468C327.698 262.064 329.022 262.677 330.341 263.302C330.836 263.538 331.333 263.767 331.825 264.007C333.291 264.716 334.743 265.448 336.192 266.193C336.671 266.439 337.148 266.683 337.626 266.934C339.101 267.708 340.566 268.502 342.024 269.312C342.447 269.546 342.868 269.783 343.29 270.019C344.794 270.87 346.286 271.738 347.77 272.628C348.119 272.839 348.471 273.051 348.821 273.265C350.359 274.201 351.889 275.156 353.406 276.134C353.671 276.307 353.938 276.48 354.204 276.656C355.789 277.689 357.364 278.74 358.921 279.819C359.085 279.931 359.243 280.046 359.405 280.16C361.058 281.312 362.699 282.483 364.32 283.685C417.084 322.81 447.108 384.421 446.28 448.986C446.253 449.207 446.238 449.433 446.234 449.659C446.108 458.2 445.443 466.61 444.182 475.347C435.523 479.429 426.282 482.962 416.72 485.844C416.325 485.962 415.952 486.124 415.595 486.31C355.086 504.181 289.141 493 237.532 454.747L237.534 454.748ZM455.314 542.001L428.304 495.835C436.693 492.958 444.92 489.561 452.932 485.644C454.826 484.721 456.147 482.938 456.48 480.859C457.731 473.109 458.549 465.315 458.95 457.517C469.174 459.448 479.569 461.427 489.632 463.343C496.598 464.661 503.803 466.033 510.892 467.375C496.604 476.909 484.696 488.032 475.489 500.448C466.394 512.713 459.602 526.687 455.315 542.002L455.314 542.001Z" fill="#25607E"/>
<path d="M197.258 292.356C200.032 288.599 201.196 284.001 200.525 279.395C199.862 274.792 197.431 270.723 193.703 267.959C189.967 265.201 185.381 264.057 180.781 264.733C176.202 265.413 172.126 267.816 169.304 271.515L169.249 271.59C166.483 275.32 165.347 279.911 166.043 284.514C166.746 289.111 169.188 293.178 172.933 295.968C176.669 298.726 181.255 299.869 185.842 299.196C190.428 298.506 194.484 296.08 197.258 292.356ZM180.644 285.565C178.646 284.083 178.203 281.279 179.636 279.314C181.197 277.349 184.033 276.909 185.964 278.341L185.986 278.357C187.947 279.811 188.34 282.637 186.853 284.643C185.424 286.575 182.582 286.99 180.644 285.565Z" fill="#25607E"/>
<path d="M265.537 342.982C270.702 336.034 278.248 331.508 286.787 330.241C290.319 329.717 292.766 326.417 292.242 322.885C291.988 321.178 291.084 319.666 289.694 318.636C288.305 317.606 286.596 317.179 284.888 317.432C278.844 318.33 273.154 320.384 267.964 323.547C262.948 326.599 258.628 330.547 255.139 335.269C251.632 339.981 249.117 345.255 247.648 350.945C246.128 356.83 245.814 362.874 246.712 368.916C246.966 370.624 247.87 372.136 249.26 373.166C250.649 374.196 252.358 374.623 254.066 374.369C255.774 374.116 257.285 373.211 258.315 371.822C259.346 370.432 259.772 368.723 259.519 367.015C258.256 358.471 260.394 349.936 265.537 342.982Z" fill="#25607E"/>
<path d="M326.995 354.359C328.025 352.97 328.452 351.261 328.198 349.553C327.945 347.845 327.04 346.334 325.651 345.304C324.261 344.274 322.552 343.847 320.845 344.1C314.801 344.997 309.111 347.052 303.92 350.215C298.904 353.267 294.593 357.22 291.095 361.937C287.596 366.655 285.073 371.923 283.604 377.613C282.085 383.498 281.77 389.542 282.669 395.584C282.922 397.292 283.827 398.803 285.216 399.834C286.606 400.864 288.315 401.291 290.022 401.037C291.73 400.784 293.242 399.879 294.272 398.49C295.302 397.1 295.729 395.391 295.475 393.683C294.214 385.137 296.352 376.601 301.495 369.648C306.66 362.699 314.207 358.174 322.746 356.907C324.453 356.653 325.965 355.749 326.995 354.359Z" fill="#25607E"/>
<path d="M331.437 420.336C330.178 411.803 332.314 403.266 337.459 396.314C342.624 389.366 350.171 384.84 358.71 383.573C362.242 383.049 364.688 379.749 364.164 376.217C363.911 374.51 363.006 372.998 361.617 371.968C360.227 370.938 358.518 370.511 356.81 370.764C350.766 371.662 345.076 373.716 339.886 376.879C334.87 379.931 330.558 383.884 327.061 388.601C323.562 393.319 321.039 398.587 319.57 404.277C318.051 410.162 317.738 416.207 318.634 422.248C318.888 423.956 319.793 425.468 321.182 426.498C322.571 427.528 324.282 427.956 325.988 427.701C327.696 427.448 329.207 426.543 330.238 425.154C331.268 423.764 331.695 422.055 331.441 420.347C331.44 420.349 331.439 420.349 331.437 420.336Z" fill="#25607E"/>
<path d="M407.402 356.754C404.473 347.708 400.186 339.187 394.643 331.424C388.947 323.436 382.019 316.399 374.038 310.481C371.171 308.355 367.109 308.958 364.983 311.825C362.857 314.692 363.459 318.755 366.327 320.881C379.983 331.007 389.915 344.786 395.073 360.735C395.497 362.027 396.289 363.132 397.374 363.937C399.052 365.181 401.242 365.538 403.223 364.9C404.871 364.37 406.216 363.226 406.996 361.688C407.788 360.161 407.93 358.4 407.402 356.754Z" fill="#25607E"/>
</svg>
