<svg width="684" height="684" viewBox="0 0 684 684" fill="none" xmlns="http://www.w3.org/2000/svg">
<path d="M410.467 453.142C418.404 453.366 426.227 454.7 433.321 456.653C425.847 481.278 409.389 500.117 396.941 506.731C383.296 513.94 365.139 514.372 351.269 504.143C350.629 485.601 359.045 471.299 372.009 462.867C383.457 455.393 397.16 452.804 410.468 453.143L410.467 453.142ZM273.107 453.142C286.372 452.804 300.112 455.392 311.56 462.866C324.529 471.293 332.956 485.601 332.257 504.142C318.429 514.371 300.293 513.939 286.627 506.731C274.184 500.116 257.679 481.277 250.247 456.652C257.325 454.704 265.107 453.366 273.107 453.142ZM273.273 434.918C261.867 435.048 249.513 436.819 236.413 440.449C231.403 441.835 228.476 446.887 229.768 451.856C238.971 487.372 256.513 511.658 278.325 523.194C295.352 532.231 314.752 532.528 332.341 524.929V584.861C332.341 597.428 351.18 597.428 351.18 584.861V524.923C368.768 532.522 388.216 532.226 405.237 523.189C427.013 511.647 444.601 487.372 453.81 451.85C455.102 446.882 452.159 441.83 447.149 440.444C429.695 435.6 413.575 434.048 399.19 435.392C384.794 436.684 372.185 440.835 361.815 447.569C353.352 453.053 346.649 460.319 341.815 468.668C336.93 460.329 330.232 453.064 321.763 447.569C311.399 440.835 298.774 436.684 284.389 435.392C280.79 435.048 277.07 434.918 273.273 434.918Z" fill="#25607E"/>
<path d="M410.467 346.944C418.404 347.152 426.227 348.444 433.321 350.439C425.847 375.027 409.389 393.912 396.941 400.518C383.296 407.742 365.139 408.127 351.269 397.887C350.629 379.346 359.045 365.09 372.009 356.633C383.457 349.19 397.16 346.554 410.468 346.945L410.467 346.944ZM273.107 346.944C286.372 346.553 300.112 349.194 311.56 356.626C324.529 365.09 332.956 379.35 332.257 397.881C318.429 408.126 300.293 407.735 286.627 400.511C274.184 393.907 257.679 375.027 250.247 350.433C257.325 348.443 265.107 347.152 273.107 346.944ZM273.273 328.699C261.867 328.793 249.513 330.6 236.413 334.23C231.403 335.563 228.476 340.667 229.768 345.605C238.971 381.121 256.513 405.449 278.325 416.985C298.47 427.662 321.97 426.235 341.809 413.792C361.596 426.235 385.106 427.662 405.236 416.985C427.012 405.443 444.6 381.121 453.809 345.605C455.101 340.667 452.158 335.574 447.147 334.23C429.694 329.391 413.574 327.834 399.189 329.126C384.793 330.428 372.183 334.61 361.814 341.313C353.351 346.798 346.647 354.058 341.814 362.444C336.929 354.058 330.231 346.804 321.762 341.313C311.398 334.61 298.773 330.428 284.387 329.126C280.789 328.792 277.07 328.657 273.273 328.699Z" fill="#25607E"/>
<path d="M410.467 244.741C418.404 245.007 426.227 246.299 433.321 248.252C425.847 272.877 409.389 291.725 396.941 298.33C383.296 305.554 365.139 305.987 351.269 295.742C350.629 277.2 359.045 262.898 372.009 254.466C383.457 246.997 397.16 244.403 410.468 244.742L410.467 244.741ZM273.107 244.741C286.372 244.403 300.112 246.996 311.56 254.465C324.529 262.892 332.956 277.2 332.257 295.741C318.429 305.986 300.293 305.554 286.627 298.33C274.184 291.726 257.679 272.876 250.247 248.251C257.325 246.298 265.107 245.007 273.107 244.741ZM273.273 226.512C261.867 226.642 249.513 228.413 236.413 232.043C231.403 233.428 228.476 238.481 229.768 243.449C238.971 278.965 256.513 303.252 278.325 314.788C298.47 325.507 321.97 324.08 341.809 311.637C361.596 324.08 385.106 325.506 405.236 314.788C427.012 303.246 444.6 278.971 453.809 243.449C455.101 238.481 452.158 233.428 447.147 232.043C429.694 227.199 413.574 225.647 399.189 226.991C384.793 228.283 372.183 232.434 361.814 239.178C353.351 244.663 346.647 251.923 341.814 260.261C336.929 251.922 330.231 244.662 321.762 239.178C311.398 232.434 298.773 228.288 284.387 226.991C280.789 226.647 277.07 226.512 273.273 226.512Z" fill="#25607E"/>
<path d="M341.721 112.903C359.351 133.253 368.038 153.179 367.382 169.382C366.695 185.882 357.268 199.075 341.887 207.403C326.466 199.075 316.923 185.758 316.179 169.247C315.497 153.05 324.179 133.217 341.721 112.903ZM341.544 89.3672C339.122 89.3984 336.799 90.4349 335.106 92.1276C309.262 117.877 297.252 145.316 298.377 170.04C299.465 194.753 314.404 215.925 338.044 226.378C340.465 227.415 343.231 227.415 345.643 226.378C369.279 215.925 384.148 194.794 385.189 170.072C386.22 145.405 374.205 117.932 348.32 92.1289C346.518 90.3581 344.059 89.3268 341.544 89.3685L341.544 89.3672Z" fill="#25607E"/>
<path fill-rule="evenodd" clip-rule="evenodd" d="M341.8 18.8067C427.649 18.8067 505.56 52.2907 563.373 106.875L462.524 207.765C458.764 211.442 458.717 217.448 462.394 221.167C466.113 224.885 472.118 224.844 475.795 221.125L576.686 120.234C631.27 178.041 664.754 255.994 664.754 341.808C664.754 520.314 520.26 664.834 341.807 664.834C255.947 664.834 177.994 631.308 120.167 576.73L214.115 482.793C220.287 476.829 215.881 466.334 207.245 466.632C204.782 466.725 202.443 467.762 200.766 469.528L106.849 563.366C52.2862 505.56 18.7915 427.646 18.7915 341.793C18.7915 163.34 163.298 18.8062 341.792 18.8062L341.8 18.8067ZM341.8 0C153.147 0 0 153.147 0 341.8C0 530.453 153.147 683.587 341.8 683.587C530.453 683.587 683.533 530.467 683.533 341.8C683.539 153.147 530.44 0 341.8 0Z" fill="#25607E"/>
</svg>
