<svg width="684" height="684" viewBox="0 0 684 684" fill="none" xmlns="http://www.w3.org/2000/svg">
<path fill-rule="evenodd" clip-rule="evenodd" d="M341.8 18.8493C427.649 18.8493 505.56 52.3333 563.373 106.896L428.547 241.669C424.797 245.346 424.755 251.352 428.474 255.071C432.193 258.789 438.187 258.748 441.875 254.977L576.635 120.164C631.219 178.013 664.703 255.924 664.703 341.83C664.703 520.297 520.29 664.737 341.796 664.737C255.936 664.737 177.983 631.253 120.156 576.669L194.391 502.476C200.532 496.512 196.125 486.106 187.563 486.356C185.11 486.397 182.818 487.392 181.084 489.116L106.849 563.351C52.2704 505.564 18.7758 427.657 18.7758 341.844C18.7758 163.337 163.282 18.844 341.776 18.844L341.8 18.8493ZM341.8 0C153.147 0 0 153.187 0 341.84C0 530.453 153.147 683.573 341.8 683.573C530.453 683.573 683.533 530.453 683.533 341.84C683.539 153.187 530.44 0 341.8 0Z" fill="#25607E"/>
<path d="M418.517 276.277L371.516 179.481C382.068 177.084 389.742 167.98 389.742 156.481C389.742 143.542 379.191 133 366.24 133H272.237C259.286 133 248.735 143.542 248.735 156.481C248.735 167.501 256.888 177.084 266.961 179.481L219.96 276.277C219.482 277.236 219 278.192 219 279.633V522.58C219 555.163 245.379 582 278.473 582H359.527C392.139 582 419 555.644 419 522.58L418.997 279.624C418.997 278.668 418.997 277.709 418.518 276.271L418.517 276.277ZM263.123 156.959C263.123 152.166 266.961 147.854 272.237 147.854H366.24C371.038 147.854 375.354 151.688 375.354 156.959C375.354 161.753 371.517 166.065 366.24 166.065H272.237C266.961 166.065 263.123 161.753 263.123 156.959ZM282.788 180.44H355.208L404.608 281.549V352.467H233.388V281.549L282.788 180.44ZM359.524 567.623H278.473C253.532 567.623 233.388 547.497 233.388 522.578V366.843H404.609V522.578C404.606 547.497 384.463 567.623 359.522 567.623H359.524Z" fill="#25607E"/>
</svg>
