<svg width="320" height="310" viewBox="0 0 320 310" fill="none" xmlns="http://www.w3.org/2000/svg">
<path d="M135.5 2.46677C103.239 9.29761 79.91 21.6457 57.382 43.7145C45.517 55.4058 32.3197 72.7456 33.6528 74.9788C35.2525 77.4747 37.7853 75.6356 42.0512 68.8047C44.584 64.8639 54.182 54.749 63.78 45.9477C77.111 33.5997 82.443 29.6588 88.176 27.557C92.175 26.112 98.04 23.222 100.973 21.2516C104.039 19.1498 107.905 16.7853 109.638 15.8658C113.237 13.8953 141.232 9.95443 146.431 10.6113C148.564 11.0054 150.164 10.6113 150.164 9.82306C150.164 9.03489 151.097 9.42898 152.03 10.7426C153.896 13.1072 154.029 12.9758 156.429 10.6113C158.162 8.77216 160.428 8.11535 164.161 8.37808C167.094 8.50944 170.16 8.11535 170.826 7.5899C171.626 7.06446 176.958 7.45854 182.824 8.6408C188.689 9.6917 196.555 10.7426 200.42 10.874C204.153 11.1367 208.152 11.7935 209.085 12.5817C210.019 13.3699 212.285 14.4208 214.151 14.9462C216.017 15.4717 226.282 20.4634 237.213 25.8493C256.01 35.176 257.343 36.0955 267.207 46.8672C272.806 53.0413 280.272 61.0544 283.738 64.7325C287.204 68.4107 290.136 72.0888 290.136 73.0083C290.136 73.9279 290.936 75.1101 291.869 75.6356C295.869 78.0001 308.533 105.061 308.133 110.184C308 111.235 308.533 112.812 309.066 113.731C309.733 114.519 310.399 117.935 310.532 121.219C310.666 124.503 311.066 127.261 311.466 127.261C311.865 127.261 312.132 129.232 312.265 131.465C312.265 133.829 312.799 142.105 313.199 149.856C313.865 161.678 313.598 165.619 311.332 174.158C307.733 187.951 307.466 188.739 306.8 195.964C306.133 202.007 302.401 212.121 297.602 221.185C296.402 223.287 295.469 226.177 295.469 227.491C295.469 228.804 294.669 230.118 293.602 230.512C292.536 230.906 289.07 234.847 285.737 239.313C276.406 251.793 254.01 272.023 250.811 270.972C250.144 270.709 247.745 272.811 245.612 275.701C243.345 278.591 240.813 280.955 239.879 280.955C238.946 280.955 232.548 283.32 225.749 286.21C205.886 294.486 185.757 298.952 166.827 299.215C143.498 299.609 119.636 294.88 103.506 286.998C84.71 277.671 66.58 266.111 62.98 260.988C61.914 259.543 56.982 254.157 51.783 249.034C40.8514 237.737 36.5856 231.694 32.7196 221.185C31.12 216.85 29.387 212.778 28.7204 211.99C28.0539 211.333 27.5206 209.757 27.5206 208.575C27.5206 207.261 26.8541 206.079 26.0543 205.816C23.6547 205.028 20.9886 195.964 22.5883 194.388C23.6547 193.337 23.3881 192.943 21.9217 192.943C20.4554 192.943 19.3889 190.578 18.3224 184.667C17.3893 180.2 16.0562 174.026 15.3897 171.005C13.3901 162.204 13.9233 140.529 16.3228 131.859C17.5226 127.524 18.4557 122.27 18.4557 120.168C18.3224 118.066 19.2556 114.913 20.4554 113.206C22.055 110.841 22.1884 109.659 20.9886 108.477C16.9894 104.536 13.3901 117.278 11.3904 141.843C10.0574 158.263 10.0574 164.043 11.3904 170.742C12.3236 175.34 13.1234 181.251 13.1234 183.747C13.1234 186.243 13.9233 190.709 14.8564 193.599C15.7896 196.489 17.256 202.138 18.1891 206.079C19.1223 210.02 21.7884 216.719 24.3213 220.923C26.8541 225.126 28.8537 229.33 28.8537 230.249C28.8537 231.169 30.3201 233.271 32.1864 234.978C34.0527 236.686 35.5191 238.788 35.5191 239.839C35.5191 240.758 36.1856 241.547 36.9855 241.547C37.652 241.547 39.1184 243.517 40.1849 246.013C41.2513 248.509 43.3842 251.005 44.984 251.399C46.45 251.924 47.383 252.581 47.117 252.975C46.45 253.632 48.717 256.785 53.249 261.514C54.449 262.827 55.515 264.404 55.515 265.06C55.515 265.586 56.982 267.688 58.848 269.658C60.714 271.629 62.181 272.548 62.181 271.629C62.181 270.84 63.78 271.629 65.647 273.599C67.646 275.438 69.912 277.014 70.979 277.014C71.912 277.014 72.845 277.408 73.112 277.934C73.512 278.985 83.91 284.896 85.243 284.896C85.643 284.896 86.309 283.845 86.576 282.532C86.976 280.955 87.242 281.087 87.376 283.32C87.509 285.684 88.975 286.998 93.908 289.1C97.374 290.545 105.905 294.223 112.837 297.376C120.036 300.66 129.234 303.681 134.167 304.469C157.495 308.016 165.76 308.673 179.091 307.753C190.289 307.096 193.355 307.228 194.288 308.673C195.088 310.118 195.755 310.118 197.088 308.804C198.288 307.622 198.288 307.228 196.555 307.228C195.355 307.228 194.022 306.702 193.488 306.045C192.689 304.6 198.154 304.6 200.154 306.045C200.954 306.571 202.42 306.571 203.486 305.914C204.553 305.126 207.086 304.6 209.085 304.6C211.885 304.6 212.951 303.812 213.618 301.448C214.151 298.952 215.084 298.426 217.617 298.821C219.35 299.083 220.816 298.821 220.816 298.032C220.816 297.376 225.749 294.354 231.881 291.333C237.88 288.312 245.878 283.845 249.744 281.349C253.61 278.853 257.209 277.146 257.876 277.54C258.542 277.934 259.876 276.752 260.809 275.044C261.742 273.205 263.208 271.76 263.875 271.76C264.541 271.76 266.941 269.658 269.074 267.162C271.34 264.666 273.74 262.959 274.406 263.353C274.939 263.747 275.473 263.353 275.473 262.696C275.473 261.908 276.406 261.251 277.472 261.251C279.472 261.251 282.538 256.916 281.471 255.734C281.071 255.34 282.271 253.501 284.138 251.53C286.004 249.56 287.47 247.458 287.47 246.67C287.47 246.013 288.137 245.487 288.803 245.487C289.603 245.487 290.136 244.962 290.136 244.437C290.136 243.78 293.069 238.394 296.802 232.483C300.401 226.44 305.467 216.194 308 209.626C312.665 197.54 318.131 174.552 318.131 166.67C318.131 164.437 318.664 161.547 319.331 160.365C319.997 159.051 319.731 152.352 318.664 143.682C317.731 135.669 316.931 127.13 316.931 124.634C316.931 122.138 316.398 116.752 315.598 112.812C314.132 105.849 312.532 102.303 300.934 80.8901C298.001 75.3729 295.469 69.4616 295.469 68.0166C295.469 61.8425 270.54 37.6719 253.61 27.557C250.811 25.8493 245.878 22.1711 242.679 19.4125C236.68 14.4208 222.949 9.03489 215.751 9.03489C213.884 9.03489 211.352 8.11535 210.019 6.93309C202.687 0.36498 157.895 -2.39363 135.5 2.46677Z" fill="black"/>
<path d="M105.772 33.5982C103.373 35.8313 106.572 40.429 131.1 69.3287C157.629 100.725 164.027 107.95 158.029 99.6734C156.162 97.1775 145.364 82.3336 134.167 66.8328C109.238 32.4159 108.172 31.1023 105.772 33.5982Z" fill="black"/>
<path d="M92.8408 43.847C92.8408 45.8174 144.165 107.558 145.764 107.558C146.031 107.558 144.298 104.799 141.898 101.515C139.499 98.231 128.834 83.6498 118.17 69.0685C104.172 49.8896 98.0398 42.402 95.9068 42.1393C93.7738 41.8765 92.8408 42.402 92.8408 43.847Z" fill="black"/>
<path d="M4.05866 78.6565C2.45896 79.1819 0.859256 80.7583 0.326056 82.0719C-1.94024 87.8518 7.39126 93.8945 35.1193 104.403C56.982 112.679 68.313 118.722 76.578 126.341C86.043 135.142 89.375 141.973 94.308 162.334C100.707 189 106.172 197.933 122.569 208.967C133.367 216.192 155.496 226.307 166.827 229.197C180.958 232.875 206.553 232.613 218.817 228.803C235.48 223.68 253.21 210.018 258.543 198.327C261.609 191.496 261.075 182.038 257.076 175.47C254.677 171.267 254.677 171.267 258.676 163.516C262.275 156.685 262.808 154.452 262.808 144.863C262.808 135.011 262.408 133.566 258.809 128.442C249.078 114.781 234.814 110.577 220.417 117.408C215.084 119.904 212.818 121.612 212.818 123.451C212.818 125.684 213.885 125.947 225.482 125.947C236.014 125.947 238.413 126.341 239.08 128.048C240.546 131.989 237.613 134.485 230.815 134.879C225.349 135.273 224.682 135.667 225.349 137.9C225.749 139.214 226.549 141.579 226.949 143.024C228.148 146.57 226.149 146.308 217.084 141.841C187.49 127.26 149.63 120.692 120.436 125.158C112.571 126.472 104.306 127.129 102.173 126.603C100.04 126.078 93.908 121.874 88.576 117.145C71.912 102.301 47.65 88.7714 23.1216 80.6269C12.5903 77.2115 8.72436 76.8174 4.05866 78.6565ZM166.427 131.989C183.357 135.142 220.817 149.066 220.817 152.219C220.817 153.533 215.884 154.846 210.419 154.846C208.019 154.846 198.821 153.007 190.156 150.905C181.491 148.672 173.359 146.964 172.293 146.964C168.693 146.964 169.893 149.198 174.959 152.088C182.024 156.291 179.625 157.736 167.36 156.685C158.429 155.897 156.829 156.16 156.829 157.736C156.829 158.918 157.762 160.495 158.829 161.414C160.562 162.859 184.024 167.851 198.554 169.953C205.753 170.872 205.62 172.055 197.754 175.996C189.756 180.068 176.425 178.886 158.295 172.58C150.697 169.953 143.632 168.114 142.698 168.508C137.499 170.478 143.632 179.28 155.096 186.373C169.227 195.306 192.955 198.984 211.485 195.043C223.216 192.547 238.413 185.848 245.079 179.936C247.745 177.703 250.144 175.864 250.544 175.864C251.744 175.864 254.143 184.009 254.143 188.344C254.143 197.67 238.68 205.683 218.017 206.997C197.354 208.311 167.76 201.611 145.898 190.839C132.834 184.403 118.57 175.339 112.438 169.559C98.707 156.685 98.707 139.608 112.304 133.171C121.769 128.705 146.031 128.18 166.427 131.989Z" fill="black"/>
<path d="M206.286 100.331C203.886 101.382 199.754 102.302 197.354 102.302C192.289 102.302 190.156 105.192 192.422 108.738C193.888 110.971 196.554 111.103 214.818 109.264C227.215 108.081 229.348 105.586 221.883 100.988C216.684 97.9667 212.551 97.704 206.286 100.331Z" fill="black"/>
<path d="M146.165 109.395C146.165 109.658 147.231 110.709 148.564 111.628C150.564 113.336 150.697 113.205 148.964 111.103C147.231 109.001 146.165 108.344 146.165 109.395Z" fill="black"/>
<path d="M189.356 119.903C187.623 124.238 189.489 126.602 194.422 126.996C199.487 127.39 204.82 125.551 204.82 123.318C204.82 118.72 190.956 115.699 189.356 119.903Z" fill="black"/>
<path d="M264.941 131.988C269.474 140.79 269.874 148.277 266.275 158.392C264.941 162.202 264.142 165.354 264.275 165.354C265.608 165.354 270.274 154.057 270.94 149.328C271.873 142.892 267.741 130.412 263.608 126.734C261.875 125.158 262.142 126.471 264.941 131.988Z" fill="black"/>
<path d="M96.0408 197.67C99.5068 211.463 110.438 224.994 125.235 233.532C135.366 239.444 155.762 246.143 171.493 248.902C186.023 251.398 205.22 250.741 216.284 247.457C224.816 244.961 226.949 242.859 224.816 238.787C223.083 235.765 220.283 235.765 206.153 238.787C192.022 241.94 164.961 239.444 147.097 233.532C132.167 228.541 118.303 218.82 102.973 202.268C96.1738 194.912 95.2408 194.386 96.0408 197.67Z" fill="black"/>
</svg>
