<svg width="684" height="684" viewBox="0 0 684 684" fill="none" xmlns="http://www.w3.org/2000/svg">
<path fill-rule="evenodd" clip-rule="evenodd" d="M341.8 18.8493C427.649 18.8493 505.56 52.3333 563.373 106.896L428.547 241.669C424.797 245.346 424.755 251.352 428.474 255.071C432.193 258.789 438.187 258.748 441.875 254.977L576.635 120.164C631.219 178.013 664.703 255.924 664.703 341.83C664.703 520.297 520.29 664.737 341.796 664.737C255.936 664.737 177.983 631.253 120.156 576.669L194.391 502.476C200.532 496.512 196.125 486.106 187.563 486.356C185.11 486.397 182.818 487.392 181.084 489.116L106.849 563.351C52.2704 505.564 18.7758 427.657 18.7758 341.844C18.7758 163.337 163.282 18.844 341.776 18.844L341.8 18.8493ZM341.8 0C153.147 0 0 153.187 0 341.84C0 530.453 153.147 683.573 341.8 683.573C530.453 683.573 683.533 530.453 683.533 341.84C683.539 153.187 530.44 0 341.8 0Z" fill="#25607E"/>
<path d="M367.352 399.401C397.575 422.524 437.444 419.29 458.13 392.388C483.802 358.924 465.734 307.4 422.734 290.926C402.033 283.072 385.638 266.802 377.623 246.162C357.53 193.652 283.101 178.632 254.218 223.17C239.762 245.522 242.778 275.629 262.105 298.293L262.108 298.293C263.712 300.634 263.298 303.807 261.147 305.659C258.993 307.508 255.793 307.441 253.722 305.502C231.247 279.004 227.735 243.557 244.884 217.077C278.371 165.42 364.48 180.624 388.025 242.108C394.789 259.893 408.891 273.901 426.722 280.549C476.631 299.647 497.04 359.773 466.88 399.137C442.55 430.94 395.895 435.3 360.492 408.253C358.048 406.381 357.582 402.877 359.454 400.433C361.329 397.987 364.83 397.524 367.276 399.396L367.352 399.401Z" fill="#25607E"/>
<path d="M401.966 318.24C406.507 322.056 410.502 326.477 413.844 331.381C415.663 333.857 415.131 337.34 412.654 339.159C410.181 340.979 406.698 340.447 404.876 337.973C402.034 333.782 398.613 330.015 394.712 326.789C393.372 325.904 392.476 324.483 392.26 322.893C392.046 321.3 392.528 319.695 393.585 318.484C394.64 317.274 396.169 316.581 397.775 316.583C399.382 316.583 400.909 317.28 401.964 318.49L401.966 318.24Z" fill="#25607E"/>
<path d="M362.407 279.609C363.69 278.872 365.216 278.676 366.643 279.066C368.071 279.455 369.284 280.398 370.014 281.684C373.657 287.329 377.885 292.574 382.628 297.332C383.61 298.445 384.107 299.9 384.017 301.382C383.923 302.861 383.247 304.245 382.134 305.226C379.82 307.271 376.283 307.051 374.242 304.734C368.938 299.434 364.244 293.559 360.248 287.213C359.518 285.92 359.336 284.39 359.74 282.96C360.146 281.532 361.107 280.324 362.407 279.609Z" fill="#25607E"/>
<path d="M337.957 235.327C344.404 240.788 350.01 251.333 352.067 256.155C352.669 257.517 352.699 259.062 352.155 260.446C351.608 261.831 350.528 262.939 349.159 263.521C347.79 264.107 346.246 264.117 344.869 263.55C343.492 262.986 342.399 261.892 341.836 260.515C339.264 254.28 335.523 248.595 330.815 243.765C328.461 241.784 328.159 238.272 330.137 235.92C332.118 233.566 335.63 233.264 337.984 235.245L337.957 235.327Z" fill="#25607E"/>
<path d="M300.841 220.225C301.039 217.175 303.662 214.857 306.712 215.034C310.99 215.388 315.106 216.83 318.671 219.22C321.187 221.011 321.775 224.5 319.987 227.014C318.199 229.531 314.709 230.118 312.193 228.33C310.328 227.174 308.219 226.466 306.033 226.262C304.537 226.168 303.141 225.475 302.164 224.339C301.186 223.201 300.711 221.719 300.841 220.225Z" fill="#25607E"/>
<path d="M346.099 314.183C348.18 311.936 351.687 311.796 353.941 313.868C358.798 319.116 362.823 325.077 365.875 331.542C367.1 334.288 365.921 337.511 363.214 338.818C360.505 340.125 357.249 339.043 355.863 336.376C353.386 331.216 350.205 326.423 346.41 322.137C345.296 321.135 344.637 319.723 344.577 318.226C344.519 316.728 345.067 315.272 346.099 314.183Z" fill="#25607E"/>
<path d="M294.625 278.084C288.865 273.133 284.502 266.758 281.973 259.598C281.426 256.799 283.086 254.043 285.815 253.213C288.541 252.385 291.455 253.753 292.559 256.382C294.403 261.336 297.433 265.764 301.379 269.281C302.545 270.184 303.307 271.515 303.494 272.978C303.679 274.442 303.278 275.919 302.375 277.088C300.493 279.517 296.999 279.963 294.568 278.083L294.625 278.084Z" fill="#25607E"/>
<path d="M199.831 351.14C235.443 315.959 278.927 303.208 313.803 338.567C349.29 374.486 356.92 418.771 336.558 470.232C335.626 472.562 337.051 480.746 332.408 485.334C327.765 489.921 320.323 488.042 318.04 488.723C269.635 506.226 222.495 502.048 185.907 464.928C151.029 429.651 164.221 386.328 199.83 351.142L199.831 351.14ZM207.654 359.028C194.366 372.183 169.718 401.675 178.653 432.453C205.81 420.355 216.06 399.311 237.376 378.14C250.131 365.538 277.024 351.13 282.151 331.14C255.313 322.332 227.737 339.183 207.651 359.027L207.654 359.028ZM193.798 457.129C225.082 488.766 265.613 495.882 314.265 478.268C317.776 476.983 321.831 477.618 324.56 477.19C325.218 474.414 324.605 469.849 326.212 466.078C345.076 418.449 338.443 379.255 305.887 346.389C301.887 342.288 297.378 338.719 292.465 335.772C285.233 359.14 257.39 374.154 245.334 386.065C224.186 406.958 213.039 429.414 182.928 442.745L182.927 442.748C185.867 448.021 189.525 452.863 193.794 457.134L193.798 457.129Z" fill="#25607E"/>
<path d="M241.831 427.669C251.227 437.024 262.927 443.731 275.747 447.116C278.607 447.989 280.262 450.969 279.498 453.859C278.733 456.747 275.82 458.514 272.901 457.861C257.959 453.967 244.357 446.079 233.554 435.043C231.52 432.726 231.745 429.2 234.061 427.163C236.377 425.127 239.906 425.354 241.94 427.67L241.831 427.669Z" fill="#25607E"/>
</svg>
