<svg width="684" height="684" viewBox="0 0 684 684" fill="none" xmlns="http://www.w3.org/2000/svg">
<path fill-rule="evenodd" clip-rule="evenodd" d="M341.8 18.8493C427.649 18.8493 505.56 52.3333 563.373 106.896L428.547 241.669C424.797 245.346 424.755 251.352 428.474 255.071C432.193 258.789 438.187 258.748 441.875 254.977L576.635 120.164C631.219 178.013 664.703 255.924 664.703 341.83C664.703 520.297 520.29 664.737 341.796 664.737C255.936 664.737 177.983 631.253 120.156 576.669L194.391 502.476C200.532 496.512 196.125 486.106 187.563 486.356C185.11 486.397 182.818 487.392 181.084 489.116L106.849 563.351C52.2704 505.564 18.7758 427.657 18.7758 341.844C18.7758 163.337 163.282 18.844 341.776 18.844L341.8 18.8493ZM341.8 0C153.147 0 0 153.187 0 341.84C0 530.453 153.147 683.573 341.8 683.573C530.453 683.573 683.533 530.453 683.533 341.84C683.539 153.187 530.44 0 341.8 0Z" fill="#25607E"/>
<path d="M434.318 284.648C401.494 210.072 310.35 177.285 231.307 212.074C152.265 246.864 114.879 336.219 147.703 410.796C158.13 433.72 174.267 453.579 194.567 468.477C214.868 483.376 238.657 492.818 263.649 495.893L264.919 532.113C265.186 539.62 269.174 546.5 275.56 550.457C282.536 554.742 291.18 555.296 298.648 551.942L436.444 491.294C443.962 488.052 449.391 481.304 450.944 473.265C452.339 465.884 449.96 458.296 444.604 453.027L418.752 427.625L418.753 427.627C433.367 407.12 442.473 383.203 445.197 358.167C447.922 333.132 444.177 307.819 434.316 284.649L434.318 284.648ZM406.01 424.682C404.201 427.091 404.449 430.466 406.594 432.583L436.151 461.618C438.682 464.079 439.788 467.66 439.082 471.12C438.263 475.226 435.457 478.655 431.595 480.27L293.799 540.918C290 542.675 285.576 542.428 281.996 540.259C278.967 538.443 277.073 535.208 276.968 531.679L275.521 490.272C275.409 487.261 273.088 484.798 270.09 484.505C246.237 482.432 223.361 474.069 203.794 460.266C184.231 446.465 168.679 427.717 158.727 405.941C128.476 337.21 163.239 255.19 236.16 223.095C309.081 191 393.042 220.761 423.294 289.497C432.631 311.544 435.95 335.676 432.914 359.424C429.877 383.175 420.592 405.693 406.009 424.683L406.01 424.682Z" fill="#25607E"/>
<path d="M275.168 311.73C272.124 313.07 270.743 316.624 272.082 319.668L319.195 426.711C320.535 429.755 324.089 431.136 327.133 429.797C330.176 428.457 331.558 424.903 330.219 421.859L283.106 314.816C282.463 313.355 281.264 312.208 279.776 311.629C278.288 311.05 276.63 311.087 275.168 311.73Z" fill="#25607E"/>
<path d="M204.349 365.201C203.217 364.063 201.678 363.424 200.072 363.426C198.467 363.428 196.932 364.071 195.801 365.212C193.461 367.558 193.457 371.352 195.79 373.703L277.854 456.407L277.852 456.41C279.62 458.185 282.301 458.682 284.586 457.656C285.254 457.338 285.869 456.912 286.401 456.399C288.74 454.053 288.746 450.256 286.413 447.905L204.349 365.201Z" fill="#25607E"/>
<path d="M368.215 289.332C366.61 289.396 365.099 290.093 364.012 291.276C362.926 292.459 362.358 294.025 362.433 295.628L367.99 412.005C368.083 413.612 368.818 415.116 370.027 416.179C371.236 417.238 372.82 417.775 374.427 417.661C375.167 417.614 375.894 417.45 376.579 417.172C378.88 416.18 380.326 413.866 380.209 411.365L374.652 294.988L374.651 294.986C374.555 293.38 373.824 291.878 372.613 290.816C371.405 289.753 369.819 289.22 368.215 289.332Z" fill="#25607E"/>
</svg>
