<svg width="684" height="684" viewBox="0 0 684 684" fill="none" xmlns="http://www.w3.org/2000/svg">
<path fill-rule="evenodd" clip-rule="evenodd" d="M341.8 18.8493C427.649 18.8493 505.56 52.3333 563.373 106.896L428.547 241.669C424.797 245.346 424.755 251.352 428.474 255.071C432.193 258.789 438.187 258.748 441.875 254.977L576.635 120.164C631.219 178.013 664.703 255.924 664.703 341.83C664.703 520.297 520.29 664.737 341.796 664.737C255.936 664.737 177.983 631.253 120.156 576.669L194.391 502.476C200.532 496.512 196.125 486.106 187.563 486.356C185.11 486.397 182.818 487.392 181.084 489.116L106.849 563.351C52.2704 505.564 18.7758 427.657 18.7758 341.844C18.7758 163.337 163.282 18.844 341.776 18.844L341.8 18.8493ZM341.8 0C153.147 0 0 153.187 0 341.84C0 530.453 153.147 683.573 341.8 683.573C530.453 683.573 683.533 530.453 683.533 341.84C683.539 153.187 530.44 0 341.8 0Z" fill="#25607E"/>
<path d="M395.208 321.293C395.208 331.295 387.101 339.403 377.103 339.403C367.101 339.403 358.993 331.295 358.993 321.293C358.993 311.295 367.101 303.188 377.103 303.188C387.101 303.188 395.208 311.295 395.208 321.293Z" fill="#25607E"/>
<path d="M155.098 354.832H285.884C288.565 364.222 293.931 372.942 301.309 380.32C324.786 402.453 362.344 406.477 374.414 406.477H376.426C381.123 406.477 386.484 406.477 391.851 407.146C399.228 410.501 403.921 417.205 403.921 425.256C403.921 435.988 395.2 444.704 384.473 444.704H253.687C250.332 429.949 237.589 419.216 222.164 419.216C206.739 419.216 193.995 429.949 190.641 444.704H161.804C157.78 444.704 155.095 448.059 155.095 452.082C155.095 479.582 177.228 501.715 204.728 501.715C230.215 501.715 251.007 482.935 253.687 458.122H383.803C401.913 458.122 416.668 443.367 416.668 425.256C416.668 421.233 415.999 417.21 414.656 413.186C426.726 419.222 434.778 429.284 434.778 447.391C434.778 478.914 411.976 495.013 397.889 502.39C397.22 499.036 395.208 495.681 391.854 493.67L367.039 480.257C360.33 476.903 352.284 477.576 346.249 482.269C338.871 488.304 336.859 499.706 342.894 507.756C344.237 509.768 346.249 511.78 348.26 513.123C346.249 514.465 344.237 516.477 342.894 518.489C336.859 526.536 338.871 537.937 346.249 543.977C349.603 546.657 353.627 548 358.319 548C361.673 548 364.354 547.331 367.039 545.988L391.854 532.576C396.551 529.895 398.563 525.198 397.889 519.831V519.162C506.541 514.465 511.907 419.9 511.907 400.447C511.907 387.703 508.552 277.71 399.232 277.71L205.4 277.705C202.046 277.705 198.691 280.386 198.691 284.414C198.691 287.768 201.372 291.123 205.4 291.123C206.069 291.123 256.372 292.466 275.825 315.937L160.46 315.933C143.023 315.933 128.937 301.846 128.937 284.41C128.937 266.973 143.024 252.887 160.46 252.887H421.361C425.385 252.887 428.07 250.206 428.07 246.178C428.07 242.155 425.389 239.469 421.361 239.469L160.46 239.474C135.645 239.474 115.523 259.596 115.523 284.411C115.523 309.225 135.645 329.348 160.46 329.348H283.197C283.866 332.028 283.866 334.714 283.866 337.394V340.749L155.092 340.754C124.238 340.754 99.4246 315.939 99.4246 285.086C99.4246 254.232 124.239 229.418 155.092 229.418C159.116 229.418 161.801 226.737 161.801 222.709C161.801 218.685 159.121 216 155.092 216C116.86 216 86.0106 246.854 86.0106 285.082C85.3369 323.987 116.86 354.837 155.092 354.837L155.098 354.832ZM222.168 432.634C230.215 432.634 236.923 437.332 239.605 444.705H204.727C207.413 438 214.117 432.634 222.168 432.634ZM204.727 487.634C187.291 487.634 172.535 474.89 169.18 457.454H240.273C237.593 474.891 222.168 487.634 204.726 487.634H204.727ZM354.964 492.996C355.633 492.327 356.975 491.653 358.318 491.653C358.987 491.653 360.33 491.653 360.999 492.322L383.132 504.392L371.062 507.073C365.027 508.415 358.317 505.73 354.294 500.364C352.278 497.692 352.952 494.338 354.964 492.996ZM360.999 534.582C358.987 535.925 356.975 535.251 354.964 533.913C352.952 531.902 352.283 529.216 354.295 526.535C357.649 522.512 362.342 519.827 367.707 519.827H371.062L383.132 522.507L360.999 534.582ZM413.986 398.431C434.777 390.384 464.958 372.274 478.376 329.349C491.789 348.797 496.486 372.274 497.824 387.698C482.399 414.524 453.556 418.553 441.486 419.221C436.115 409.832 426.726 402.454 413.986 398.431ZM498.493 401.111C498.493 411.17 497.15 430.623 489.104 450.071C476.359 455.437 458.249 455.437 448.191 455.437C448.191 452.757 448.86 450.74 448.86 448.06C448.86 440.013 447.517 432.635 444.837 425.926C458.249 424.584 482.395 419.891 498.494 399.101V401.113L498.493 401.111ZM420.691 503.728C432.092 494.339 443.494 480.926 447.517 461.473H454.894C463.615 461.473 475.017 460.804 485.075 458.119C474.347 478.246 454.9 497.024 420.691 503.728ZM265.089 292.458H399.229C435.444 292.458 458.251 305.871 473.008 323.313C458.921 374.958 420.025 391.052 401.915 395.748C399.903 395.079 397.892 395.079 395.88 395.079C394.533 393.732 393.863 393.732 393.19 393.732C387.824 393.063 382.458 393.063 377.092 392.389H375.08C362.336 393.058 330.143 387.692 312.033 370.256C303.313 361.536 298.621 350.808 298.621 338.064C297.283 315.261 282.526 300.506 265.09 292.459L265.089 292.458Z" fill="#25607E"/>
<path d="M383.806 377.634C381.794 377.634 380.451 378.977 380.451 380.988C380.451 383 381.794 384.343 383.806 384.343C386.486 384.343 389.841 384.343 393.195 383.674C395.207 383.674 396.55 381.662 396.55 380.319C396.55 378.308 395.207 376.965 393.195 376.965C389.845 376.96 386.491 377.634 383.806 377.634Z" fill="#25607E"/>
<path d="M358.99 382.334C359.659 382.334 359.659 382.334 358.99 382.334C361.002 382.334 362.345 380.991 363.014 379.653C363.014 377.641 362.345 376.299 360.333 375.63C314.728 368.252 314.054 338.74 314.054 337.397C314.054 335.386 312.711 334.043 310.699 334.043C308.687 334.043 307.345 335.386 307.345 337.397C307.345 338.066 308.019 374.287 358.99 382.334Z" fill="#25607E"/>
</svg>
