<svg width="684" height="684" viewBox="0 0 684 684" fill="none" xmlns="http://www.w3.org/2000/svg">
<path fill-rule="evenodd" clip-rule="evenodd" d="M341.8 18.8493C427.649 18.8493 505.56 52.3333 563.373 106.896L428.547 241.669C424.797 245.346 424.755 251.352 428.474 255.071C432.193 258.789 438.187 258.748 441.875 254.977L576.635 120.164C631.219 178.013 664.703 255.924 664.703 341.83C664.703 520.297 520.29 664.737 341.796 664.737C255.936 664.737 177.983 631.253 120.156 576.669L194.391 502.476C200.532 496.512 196.125 486.106 187.563 486.356C185.11 486.397 182.818 487.392 181.084 489.116L106.849 563.351C52.2704 505.564 18.7758 427.657 18.7758 341.844C18.7758 163.337 163.282 18.844 341.776 18.844L341.8 18.8493ZM341.8 0C153.147 0 0 153.187 0 341.84C0 530.453 153.147 683.573 341.8 683.573C530.453 683.573 683.533 530.453 683.533 341.84C683.539 153.187 530.44 0 341.8 0Z" fill="#25607E"/>
<path fill-rule="evenodd" clip-rule="evenodd" d="M328.373 207.017C329.629 208.105 331.004 209.309 332.254 210.345C357.232 231.042 376.248 247.424 376.931 286.96C371.827 287.866 367.249 286.736 362.03 288.725C350.274 293.132 356.884 310.761 368.634 306.356C391.888 297.627 411.202 302.252 425.978 312.793C440.238 322.95 448.832 339.153 450.732 353.277C444.727 354.397 439.847 353.012 433.544 354.913C421.008 358.158 426.544 376.992 438.852 372.934C482.325 360.101 515.117 367.283 538.706 382.45C561.138 396.919 573.884 419.351 578.8 439.138C553.404 482.346 484.346 509.091 418.453 480.783C416.859 476.163 415.135 471.58 413.052 467.043C401.812 442.627 380.953 420.549 348.932 405.642C361.375 361.615 350.791 321.611 322.921 298.22C337.952 269.142 339.156 241.532 331.775 217.075C330.796 213.679 329.624 210.341 328.374 207.018L328.373 207.017ZM271.931 139.689C274.785 146.053 277.894 151.876 281.316 157.277C293.894 179.58 307.327 200.917 313.806 222.485C320.602 244.996 320.644 267.288 304.821 294.392C302.358 298.662 303.618 304.157 307.717 306.876C334.373 324.803 346.17 363.001 330.654 407.501C329.003 412.215 331.342 417.397 335.962 419.309C368.076 432.35 385.612 452.402 395.988 474.918C405.452 495.486 407.613 517.959 408.342 538.391C401.905 541.719 393.52 545.433 381.858 548.719C332.082 562.589 297.9 558.532 275.509 542.922C253.134 527.365 240.43 498.677 236.973 457.548C236.676 453.923 234.291 450.751 230.832 449.459C181.712 431.746 159.843 359.235 192.207 320.23C194.629 317.376 195.103 313.318 193.379 309.985C182.186 287.906 176.91 261.761 181.889 237.22C186.9 212.673 201.728 189.34 233.129 171.241C241.395 166.439 260.009 157.71 271.932 139.689L271.931 139.689ZM262.998 113.033C259.446 138.617 237.28 147.08 223.717 154.945C188.373 175.346 169.493 203.904 163.446 233.461C157.832 261.07 164.608 288.592 175.717 312.748C139.676 361.961 162.884 438.712 219.316 463.681C223.686 505.561 237.379 539.342 264.821 558.452C292.691 577.806 332.311 581.738 383.3 567.816C397.169 564.024 413.107 559.181 424.087 552.092C426.769 550.311 428.368 547.29 428.326 544.092C428.102 531.472 427.123 517.477 424.352 503.133C496.639 527.284 571.086 497.258 598.446 444.404C599.44 442.503 599.737 440.3 599.31 438.191C594.003 412.472 577.05 384.737 548.925 366.633C528.575 353.534 500.618 349.382 469.513 351.466C467.049 331.201 455.601 310.805 436.882 297.497C425.434 289.336 410.83 285.523 395.142 284.794C393.507 240.325 369.169 216.477 344.278 195.857C329.289 183.456 314.169 171.663 302.158 154.939C292.908 142.023 285.565 124.909 281.939 111.393C279.33 101.684 264.429 102.585 263.002 113.039L262.998 113.033Z" fill="#25607E"/>
<path fill-rule="evenodd" clip-rule="evenodd" d="M254.733 209.738C268.905 212.119 279.531 228.545 276.379 248.066C273.259 267.645 258.004 279.66 243.832 277.28C229.66 274.858 219.035 258.441 222.187 238.91C225.348 219.374 240.556 207.326 254.733 209.738ZM257.754 191.165C231.702 186.754 208.202 207.758 203.656 235.801C199.119 263.801 214.807 291.494 240.864 295.9C266.874 300.311 290.416 279.274 294.916 251.222C299.457 223.181 283.77 195.572 257.754 191.165Z" fill="#25607E"/>
<path fill-rule="evenodd" clip-rule="evenodd" d="M245.174 331.514C261.726 325.207 282.601 336.05 290.805 358.129C299.008 380.222 290.414 402.259 273.873 408.561C257.321 414.868 236.446 404.024 228.242 381.946C220.039 359.821 228.633 337.785 245.174 331.514ZM238.622 313.883C210.877 324.435 199.387 358.441 210.611 388.643C221.851 418.81 252.699 436.737 280.439 426.201C308.185 415.612 319.674 381.607 308.439 351.441C297.2 321.227 266.346 303.342 238.622 313.883Z" fill="#25607E"/>
<path fill-rule="evenodd" clip-rule="evenodd" d="M287.267 471.727C293.746 457.034 313.84 450.462 333.027 459.373C352.251 468.269 360.636 488.018 354.157 502.712C347.626 517.405 327.573 523.884 308.355 514.982C289.167 506.076 280.74 486.408 287.267 471.727ZM270.193 463.821C258.876 489.316 273.61 519.608 300.751 532.181C327.887 544.759 359.896 536.103 371.177 510.618C382.495 485.124 367.803 454.744 340.672 442.217C313.489 429.634 281.475 438.316 270.193 463.821Z" fill="#25607E"/>
</svg>
