<svg width="684" height="684" viewBox="0 0 684 684" fill="none" xmlns="http://www.w3.org/2000/svg">
<path fill-rule="evenodd" clip-rule="evenodd" d="M341.8 18.8493C427.649 18.8493 505.56 52.3333 563.373 106.896L428.547 241.669C424.797 245.346 424.755 251.352 428.474 255.071C432.193 258.789 438.187 258.748 441.875 254.977L576.635 120.164C631.219 178.013 664.703 255.924 664.703 341.83C664.703 520.297 520.29 664.737 341.796 664.737C255.936 664.737 177.983 631.253 120.156 576.669L194.391 502.476C200.532 496.512 196.125 486.106 187.563 486.356C185.11 486.397 182.818 487.392 181.084 489.116L106.849 563.351C52.2704 505.564 18.7758 427.657 18.7758 341.844C18.7758 163.337 163.282 18.844 341.776 18.844L341.8 18.8493ZM341.8 0C153.147 0 0 153.187 0 341.84C0 530.453 153.147 683.573 341.8 683.573C530.453 683.573 683.533 530.453 683.533 341.84C683.539 153.187 530.44 0 341.8 0Z" fill="#25607E"/>
<path d="M335.064 168.631C333.022 168.631 331.098 169.575 329.854 171.186C329.589 171.493 306.853 200.632 281.026 241.235C262.059 205.533 240.147 171.472 215.513 139.402C214.214 137.876 212.308 137 210.303 137C208.298 137 206.395 137.876 205.093 139.402C201.077 144.515 107 265.26 107 345.005C107 376.613 122.098 402.05 150.617 418.535V418.538C167.003 427.797 185.356 433.04 204.165 433.833V434.408C204.165 474.346 223.236 506.484 259.306 527.338C282.476 540.232 308.558 547 335.084 547C361.608 547 387.693 540.232 410.863 527.338C446.929 506.397 466 474.085 466 434.408C466 332.575 345.432 177.794 340.268 171.268C339.046 169.617 337.115 168.636 335.061 168.624L335.064 168.631ZM157.286 407.076C132.698 392.882 120.247 371.808 120.247 345.006C120.247 280.16 190.397 181.235 210.307 154.431C230.219 181.233 300.366 280.156 300.366 345.006C300.366 371.986 287.916 392.881 263.327 407.076H263.33C230.38 425.461 190.236 425.461 157.291 407.076H157.286ZM404.24 515.829C383.094 527.59 359.29 533.765 335.085 533.765C310.878 533.765 287.074 527.59 265.927 515.829C233.744 497.181 217.364 469.761 217.364 434.321V433.792H217.367C235.865 432.907 253.892 427.679 269.988 418.54C298.507 402.052 313.605 376.615 313.605 345.01C313.605 317.766 302.612 285.718 288 255.166C307.823 223.336 326.231 197.811 335.063 186.174C358.504 217.472 452.754 348.709 452.754 434.413C452.754 469.677 436.596 497.186 404.237 515.833L404.24 515.829ZM390.996 337.022C389.388 333.738 390.752 329.768 394.041 328.163C397.333 326.555 401.306 327.917 402.916 331.204C422.209 370.66 432.186 403.808 432.186 429.692C432.885 452.241 423.752 473.985 407.154 489.292C405.962 490.424 404.385 491.069 402.741 491.1C400.902 491.079 399.15 490.316 397.884 488.985C396.69 487.696 396.055 485.99 396.123 484.237C396.188 482.484 396.948 480.83 398.235 479.636C399.735 478.225 401.062 476.814 402.386 475.227V475.23C413.504 462.702 419.422 446.42 418.942 429.692C418.942 408.84 411.791 382.435 397.663 351.001C395.455 346.46 393.247 341.832 390.91 337.025L390.996 337.022ZM363.361 287.342C361.445 284.187 362.455 280.082 365.612 278.173C368.768 276.26 372.879 277.269 374.794 280.421C379.21 287.429 383.225 294.44 387.065 301.183C388.688 304.326 387.586 308.185 384.549 309.999C383.549 310.55 382.425 310.839 381.282 310.839C378.893 310.836 376.688 309.56 375.499 307.487C371.616 301.051 367.598 294.219 363.361 287.342ZM176.84 274.116C174.368 279.055 172.424 283.815 170.22 288.443C160.905 310.045 156.091 328.339 156.091 342.843C155.789 354.399 159.66 365.681 166.995 374.626C168.292 376.192 169.693 377.664 171.19 379.036C173.176 380.872 173.841 383.735 172.871 386.259C171.898 388.784 169.483 390.46 166.777 390.497C165.132 390.49 163.552 389.86 162.361 388.735C149.56 376.957 142.504 360.214 143.025 342.843C143.025 323.181 150.44 298.098 165.099 268.298C166.709 265.011 170.682 263.649 173.974 265.254C177.263 266.862 178.627 270.829 177.019 274.116L176.84 274.116ZM197.414 236.998C194.279 242.112 191.234 247.225 188.586 252.207C187.428 254.286 185.226 255.568 182.846 255.556C180.484 255.565 178.297 254.316 177.106 252.284C175.914 250.248 175.899 247.733 177.063 245.682C179.976 240.568 183.068 235.322 186.288 230.076C188.204 226.961 192.284 225.983 195.406 227.896C198.526 229.806 199.505 233.883 197.59 236.998L197.414 236.998Z" fill="#25607E"/>
</svg>
