<svg width="672" height="673" viewBox="0 0 672 673" fill="none" xmlns="http://www.w3.org/2000/svg">
<path d="M335.999 671.997C246.884 671.997 161.425 636.596 98.412 573.585C35.4013 510.575 0 425.105 0 335.999C0 246.889 35.4013 161.425 98.412 98.412C161.423 35.4013 246.892 0 335.999 0C425.108 0 510.572 35.4013 573.585 98.412C636.596 161.423 671.997 246.892 671.997 335.999C671.898 425.077 636.467 510.479 573.476 573.479C510.481 636.473 425.076 671.905 335.996 672.005L335.999 671.997ZM335.999 8.05067C271.135 8.05067 207.728 27.2853 153.799 63.3213C99.8667 99.3573 57.8293 150.576 33.012 210.508C8.18934 270.429 1.69467 336.372 14.3507 399.988C27.0017 463.608 58.236 522.045 104.1 567.908C149.969 613.772 208.403 645.007 272.02 657.663C335.635 670.314 401.577 663.819 461.5 638.996C521.427 614.173 572.645 572.141 608.687 518.209C644.723 464.277 663.957 400.865 663.952 336.009C663.853 249.056 629.269 165.703 567.791 104.223C506.307 42.7387 422.951 8.15467 336.004 8.06133L335.999 8.05067Z" fill="#008000"/>
<path d="M472.852 227.996C493.071 209.96 514.879 193.783 537.997 179.652C292.944 211.876 311.557 423.746 320.864 479.599C346.891 383.12 399.561 295.919 472.851 227.986L472.852 227.996Z" fill="#008000"/>
<path d="M539.479 180.716C488.156 215.466 444.296 260.118 410.474 312.05C391.578 341.06 375.479 371.799 362.395 403.847C350.51 432.467 341.176 462.082 334.499 492.342C384.9 481.566 569.886 425.123 539.472 180.715L539.479 180.716Z" fill="#008000"/>
<path d="M293.518 457.317C296.44 462.713 299.284 468.062 301.977 473.53C301.737 424.744 285.758 300.57 129.177 300.57C137.541 305.133 149.026 310.523 156.963 315.549H156.958C214.078 350.065 261.161 398.945 293.518 457.309L293.518 457.317Z" fill="#008000"/>
<path d="M142.638 308.97L129.165 300.574C129.165 465.494 255.613 488.988 291.658 492.334V492.339C262.981 416.787 210.732 352.486 142.645 308.966L142.638 308.97Z" fill="#008000"/>
</svg>
