<svg width="605" height="692" viewBox="0 0 605 692" fill="none" xmlns="http://www.w3.org/2000/svg">
<path d="M302.28 211.9C313.853 211.9 323.187 221.306 323.187 232.807V365.864C460.493 240.052 432.875 107.744 317.734 5.8242C308.921 -1.9414 295.635 -1.9414 286.822 5.8242C171.311 108.34 144.288 240.504 281.296 365.944V232.814C281.296 221.241 290.702 211.907 302.202 211.907L302.28 211.9Z" fill="#008000"/>
<path d="M190.961 420.673L281.007 510.72C277.273 366.466 190.362 280.293 22.5807 290C10.8567 290.672 1.37807 300.156 0.706074 311.874C-7.13246 447.914 48.9408 572.314 236.879 570.594C254.202 570.594 268.838 569.475 278.994 568.355C278.994 568.204 278.994 568.131 279.067 567.98L161.244 450.157C153.104 442.017 153.104 428.731 161.244 420.589C169.385 412.449 182.671 412.449 190.812 420.589L190.961 420.673Z" fill="#008000"/>
<path d="M603.934 311.806C603.189 300.082 593.704 290.749 581.98 290.004C421.9 280.743 333.194 359.144 324.46 495.337C324.012 500.566 323.715 505.717 323.564 510.644L413.611 420.597C421.752 412.456 435.038 412.456 443.179 420.597C451.32 428.738 451.32 442.024 443.179 450.165L325.356 567.988C325.356 567.988 325.356 568.212 325.507 568.363C541.747 590.092 613.201 461.592 603.868 311.736L603.934 311.806Z" fill="#008000"/>
<path d="M281.374 572.539V670.799C281.374 682.372 290.78 691.706 302.28 691.706C313.781 691.706 323.187 682.299 323.187 670.799V572.539H281.302H281.374Z" fill="#008000"/>
</svg>
